<?xml version="1.0" standalone="no"?>
<!DOCTYPE svg PUBLIC "-//W3C//DTD SVG 20010904//EN"
 "http://www.w3.org/TR/2001/REC-SVG-20010904/DTD/svg10.dtd">
<svg version="1.0" xmlns="http://www.w3.org/2000/svg"
 width="597.000000pt" height="597.000000pt" viewBox="0 0 597.000000 597.000000"
 preserveAspectRatio="xMidYMid meet">
<metadata>
Created by potrace 1.14, written by Peter Selinger 2001-2017
</metadata>
<g transform="translate(0.000000,597.000000) scale(0.100000,-0.100000)"
fill="#000000" stroke="none">
<path d="M859 5960 l-24 -5 0 -2976 0 -2976 660 1 660 1 5 1079 5 1079 66 -99
c37 -54 120 -178 186 -274 65 -96 186 -274 268 -395 208 -308 345 -510 440
-650 45 -66 139 -205 210 -310 71 -104 165 -244 210 -310 l82 -120 751 0 c499
0 748 3 744 10 -7 12 -131 194 -277 410 -56 83 -150 222 -210 310 -60 88 -150
221 -200 295 -168 248 -301 444 -416 615 -63 94 -116 172 -119 175 -3 3 -58
84 -123 181 l-118 175 89 185 c49 101 115 238 147 304 65 135 172 356 295 610
45 94 109 226 142 295 33 69 94 195 135 280 42 85 104 214 138 285 62 129 134
277 287 595 44 91 110 226 145 300 36 74 72 147 79 163 l15 27 -753 0 -753 0
-37 -78 c-55 -117 -229 -478 -418 -867 -45 -93 -111 -228 -145 -300 -34 -71
-97 -202 -140 -290 -43 -88 -106 -218 -140 -290 -64 -133 -149 -308 -295 -610
-45 -93 -104 -215 -130 -270 -26 -55 -73 -152 -103 -215 l-56 -115 -3 1889 -3
1889 -636 1 c-349 0 -646 -1 -660 -4z"/>
</g>
</svg>
